<?xml version="1.0" standalone="no"?>
<!DOCTYPE svg PUBLIC "-//W3C//DTD SVG 20010904//EN"
 "http://www.w3.org/TR/2001/REC-SVG-20010904/DTD/svg10.dtd">
<svg version="1.0" xmlns="http://www.w3.org/2000/svg"
 width="360.000000pt" height="360.000000pt" viewBox="0 0 360.000000 360.000000"
 preserveAspectRatio="xMidYMid meet">
<metadata>
Created by potrace 1.11, written by Peter Selinger 2001-2013
</metadata>
<g transform="translate(0.000000,360.000000) scale(0.100000,-0.100000)"
fill="#000000" stroke="none">
<path d="M481 3471 c-18 -17 -31 -39 -31 -54 0 -19 -6 -26 -30 -30 -18 -4 -30
-13 -30 -22 0 -17 14 -19 40 -5 15 8 24 5 44 -15 35 -35 79 -33 118 5 16 17
40 30 54 30 31 0 31 18 0 30 -13 5 -27 18 -31 30 -7 23 -60 60 -86 60 -9 0
-31 -13 -48 -29z m99 -21 c11 -11 20 -30 20 -42 0 -29 -38 -68 -67 -68 -52 0
-82 72 -46 112 21 24 68 23 93 -2z"/>
<path d="M684 3388 c-8 -12 25 -40 41 -35 5 2 10 10 10 17 0 17 -42 32 -51 18z"/>
<path d="M348 3349 c-21 -12 -24 -39 -4 -39 7 0 19 7 26 15 17 21 1 37 -22 24z"/>
<path d="M750 3346 c0 -8 10 -20 21 -27 12 -6 32 -23 45 -38 18 -20 25 -23 35
-14 15 15 -4 43 -30 43 -9 0 -21 10 -26 22 -12 27 -45 37 -45 14z"/>
<path d="M287 3292 c-22 -24 -21 -32 1 -32 18 0 45 34 35 44 -10 10 -19 7 -36
-12z"/>
<path d="M855 3250 c-7 -11 12 -50 25 -50 17 0 21 19 8 40 -14 22 -24 25 -33
10z"/>
<path d="M239 3229 c-16 -31 7 -52 27 -25 8 11 14 26 14 33 0 21 -28 15 -41
-8z"/>
<path d="M887 3183 c-8 -14 12 -53 28 -53 18 0 19 13 5 41 -11 20 -25 25 -33
12z"/>
<path d="M217 3173 c-11 -10 -8 -53 3 -53 9 0 30 40 30 56 0 7 -26 5 -33 -3z"/>
<path d="M516 3118 c-40 -35 -43 -78 -11 -116 64 -76 179 -8 141 83 -24 58
-85 73 -130 33z"/>
<path d="M195 3089 c-8 -23 7 -45 24 -35 6 4 11 18 11 32 0 30 -26 32 -35 3z"/>
<path d="M912 3085 c3 -30 28 -48 28 -21 0 14 86 16 900 16 l900 0 2 -787 c2
-618 6 -787 16 -791 9 -3 12 161 12 797 l0 801 -907 0 c-500 0 -918 3 -931 7
-21 5 -23 3 -20 -22z"/>
<path d="M195 3030 c-3 -5 -4 -14 0 -19 3 -6 -3 -15 -14 -20 -25 -14 -43 -65
-32 -94 13 -34 46 -59 85 -62 29 -3 40 2 61 27 14 16 25 42 25 57 0 32 -34 81
-56 81 -8 0 -22 9 -31 20 -19 22 -29 25 -38 10z m88 -72 c20 -23 21 -41 6 -69
-23 -45 -103 -40 -115 7 -19 76 58 120 109 62z"/>
<path d="M912 3008 c2 -18 8 -33 13 -33 6 0 11 15 13 33 3 24 -1 32 -13 32
-12 0 -16 -8 -13 -32z"/>
<path d="M899 2956 c-5 -6 -9 -19 -9 -29 0 -10 -9 -30 -19 -44 -11 -13 -18
-30 -15 -37 3 -8 -4 -16 -16 -19 -12 -3 -24 -15 -27 -26 -6 -24 -30 -27 -57
-6 -30 23 -74 18 -101 -10 -14 -13 -26 -31 -26 -40 -2 -18 -4 -25 -12 -45 -4
-8 -6 -406 -5 -885 l3 -870 758 -3 c416 -1 757 1 757 5 0 3 -7 14 -15 23 -8 9
-17 32 -20 51 l-5 34 10 -35 c32 -107 169 -105 187 2 5 32 1 41 -25 68 -42 41
-92 42 -133 1 -16 -16 -29 -26 -29 -21 0 4 14 20 32 35 28 24 38 27 81 21 43
-5 50 -3 54 14 3 10 16 26 29 35 13 8 24 22 24 30 0 8 6 15 14 15 8 0 23 10
33 23 10 12 30 28 46 34 15 7 27 17 27 23 0 5 9 10 19 10 11 0 26 7 35 15 8 8
22 15 31 15 9 0 26 5 38 12 12 7 28 12 36 13 9 0 15 17 18 50 3 28 5 385 6
795 l2 745 -858 5 c-536 3 -862 1 -868 -4z m-143 -192 c20 -19 24 -31 19 -52
-18 -78 -125 -66 -125 14 0 23 7 38 22 48 32 23 55 20 84 -10z m812 -30 c24
-17 29 -52 10 -75 -7 -8 -30 -27 -50 -43 -54 -39 -50 -56 12 -56 38 0 50 -4
50 -15 0 -12 -14 -15 -70 -15 -52 0 -70 3 -70 13 0 8 23 40 50 71 28 31 50 66
50 76 0 19 -25 50 -40 50 -20 0 -40 -13 -40 -26 0 -8 -4 -14 -10 -14 -17 0
-11 38 8 43 37 10 79 6 100 -9z m210 -14 l3 -25 -19 24 c-28 35 -67 23 -82
-25 -14 -42 -10 -48 21 -34 54 25 100 -23 85 -86 -8 -29 -55 -53 -93 -46 -53
10 -78 96 -49 166 18 43 41 57 91 53 34 -2 40 -5 43 -27z m-188 -640 l0 -80
-40 0 c-42 0 -45 4 -52 70 -4 32 -28 38 -161 39 l-107 1 2 -177 3 -178 50 -3
c28 -2 73 -1 101 3 47 6 52 9 58 36 5 24 10 29 36 29 l30 0 0 -90 0 -90 -30 0
c-26 0 -31 5 -36 29 -7 34 -30 41 -140 41 l-74 0 0 -149 c0 -184 4 -197 64
-206 40 -6 46 -10 46 -31 l0 -24 -190 0 -190 0 0 24 c0 19 7 25 35 30 19 4 39
15 45 26 13 25 14 675 0 699 -5 10 -25 22 -45 25 -29 6 -35 11 -35 31 l0 25
315 0 315 0 0 -80z m536 -165 c63 -40 101 -110 113 -215 5 -41 7 -78 5 -82 -3
-4 -95 -8 -204 -8 l-199 0 6 -37 c13 -97 49 -153 118 -184 65 -30 173 -23 268
16 16 7 18 3 15 -36 -3 -42 -5 -45 -43 -57 -71 -23 -183 -33 -252 -22 -123 20
-204 78 -252 179 -23 49 -26 69 -26 156 0 119 21 178 89 244 62 61 122 82 227
79 76 -3 91 -7 135 -33z"/>
<path d="M1680 2630 c-17 -33 5 -90 35 -90 25 0 35 17 35 59 0 49 -49 71 -70
31z"/>
<path d="M1911 1874 c-34 -28 -61 -102 -61 -166 l0 -38 116 0 117 0 -8 72 c-8
85 -25 132 -53 147 -35 19 -79 13 -111 -15z"/>
<path d="M282 2814 c4 -20 34 -41 45 -31 10 11 -11 41 -31 45 -12 3 -17 -2
-14 -14z"/>
<path d="M337 2773 c-12 -11 -8 -22 13 -33 30 -16 45 -2 24 21 -18 20 -27 23
-37 12z"/>
<path d="M397 2733 c-11 -10 13 -33 34 -33 23 0 25 25 3 34 -20 8 -29 8 -37
-1z"/>
<path d="M470 2706 c-3 -2 -4 -432 -2 -955 l2 -951 824 0 824 0 6 -26 c4 -14
12 -24 19 -21 17 5 21 45 7 63 -9 10 -9 14 -1 14 6 0 11 14 11 30 0 20 -5 30
-15 30 -14 0 -19 -14 -18 -47 1 -10 -169 -13 -818 -13 l-819 0 0 924 c0 874 1
924 18 922 28 -2 20 29 -8 32 -14 2 -28 1 -30 -2z"/>
<path d="M540 2685 c0 -10 10 -15 30 -15 20 0 30 5 30 15 0 10 -10 15 -30 15
-20 0 -30 -5 -30 -15z"/>
<path d="M2673 1495 c-61 -26 -72 -97 -24 -146 37 -37 79 -38 120 -3 51 42 41
118 -19 149 -35 18 -36 18 -77 0z"/>
<path d="M2812 1393 c4 -21 36 -29 51 -14 9 9 8 14 -3 21 -25 16 -52 12 -48
-7z"/>
<path d="M2880 1380 c0 -14 43 -30 54 -20 4 5 5 13 2 19 -9 14 -56 14 -56 1z"/>
<path d="M2950 1356 c0 -14 21 -26 46 -26 19 0 18 26 -2 34 -26 10 -44 7 -44
-8z"/>
<path d="M3020 1327 c0 -7 10 -18 21 -26 18 -11 23 -11 30 1 6 8 3 17 -8 26
-22 16 -43 16 -43 -1z"/>
<path d="M3086 1291 c-3 -4 3 -16 14 -26 16 -15 23 -16 33 -6 9 10 8 15 -7 27
-23 16 -33 18 -40 5z"/>
<path d="M3146 1244 c-35 -36 -35 -82 1 -124 23 -28 31 -31 70 -28 23 2 43 0
43 -4 0 -5 5 -8 10 -8 6 0 10 6 9 13 -1 6 5 29 15 50 14 33 15 41 2 71 -26 62
-102 77 -150 30z"/>
<path d="M2820 1171 c-16 -16 -31 -27 -33 -25 -2 2 -1 -16 3 -42 8 -55 34 -83
82 -90 30 -5 41 -1 69 24 46 41 47 92 1 133 -43 38 -84 38 -122 0z"/>
<path d="M2710 1146 c0 -11 10 -16 31 -16 38 0 35 24 -4 28 -19 2 -27 -1 -27
-12z"/>
<path d="M2634 1139 c-3 -6 -2 -15 3 -20 12 -12 53 1 53 17 0 17 -46 19 -56 3z"/>
<path d="M2570 1115 c-7 -9 -10 -18 -7 -21 11 -11 57 6 57 21 0 20 -34 19 -50
0z"/>
<path d="M2515 1080 c-10 -11 -15 -23 -12 -27 11 -10 59 16 55 29 -7 20 -24
19 -43 -2z"/>
<path d="M3275 1070 c-9 -14 13 -50 30 -50 18 0 19 14 5 41 -12 21 -25 25 -35
9z"/>
<path d="M2984 1046 c-9 -24 21 -55 38 -38 10 10 8 17 -9 34 -21 20 -23 20
-29 4z"/>
<path d="M2460 1035 c-7 -8 -9 -22 -6 -32 6 -15 9 -15 28 4 11 12 17 26 14 32
-10 15 -21 14 -36 -4z"/>
<path d="M3306 1002 c-9 -14 6 -52 20 -52 19 0 23 12 13 38 -8 22 -24 29 -33
14z"/>
<path d="M3027 994 c-9 -10 15 -54 30 -54 16 0 17 14 3 41 -11 19 -22 24 -33
13z"/>
<path d="M2422 978 c-13 -13 -16 -48 -4 -48 14 0 32 23 32 42 0 21 -11 23 -28
6z"/>
<path d="M2140 921 c0 -12 6 -21 16 -21 9 0 14 7 12 17 -5 25 -28 28 -28 4z"/>
<path d="M2690 912 c-93 -47 -106 -166 -24 -231 40 -32 85 -36 137 -13 54 24
77 62 77 124 0 54 -27 100 -73 121 -45 22 -73 21 -117 -1z m116 -40 c82 -66
39 -182 -66 -182 -48 0 -90 47 -90 100 0 81 96 131 156 82z"/>
<path d="M3060 916 c0 -25 12 -46 26 -46 15 0 18 18 8 44 -8 20 -34 21 -34 2z"/>
<path d="M3320 926 c0 -3 4 -17 10 -31 12 -31 30 -24 30 11 0 17 -5 24 -20 24
-11 0 -20 -2 -20 -4z"/>
<path d="M2386 904 c-9 -23 -8 -24 14 -24 13 0 20 7 20 20 0 24 -25 27 -34 4z"/>
<path d="M2328 841 c-26 -23 -32 -36 -31 -66 1 -41 31 -80 68 -89 12 -3 25
-15 28 -26 3 -11 10 -20 16 -20 15 0 14 40 -1 40 -7 1 1 7 19 15 61 26 72 97
24 146 -39 38 -80 39 -123 0z"/>
<path d="M3080 836 c0 -26 14 -41 29 -32 13 8 0 56 -15 56 -8 0 -14 -10 -14
-24z"/>
<path d="M3338 855 c-3 -3 -3 -17 0 -31 6 -31 27 -26 27 6 0 22 -15 36 -27 25z"/>
<path d="M3292 765 c-17 -14 -33 -39 -37 -55 -8 -35 16 -86 45 -95 11 -4 18
-10 15 -15 -3 -5 -1 -11 5 -15 5 -3 10 -1 10 4 0 6 12 11 26 11 33 0 84 50 84
84 0 39 -21 76 -51 92 -40 20 -63 17 -97 -11z"/>
<path d="M3080 756 c0 -14 5 -28 11 -31 14 -9 18 -4 21 25 2 16 -3 25 -14 28
-13 3 -18 -3 -18 -22z"/>
<path d="M2130 716 c0 -26 14 -41 29 -32 13 8 0 56 -15 56 -8 0 -14 -10 -14
-24z"/>
<path d="M3070 691 c-14 -28 -13 -41 5 -41 16 0 36 39 28 53 -8 13 -22 8 -33
-12z"/>
<path d="M2144 657 c-7 -19 14 -60 27 -52 14 9 11 41 -6 55 -12 10 -16 9 -21
-3z"/>
<path d="M3040 621 c-14 -26 -13 -41 3 -41 16 0 40 38 32 50 -10 16 -23 12
-35 -9z"/>
<path d="M2410 617 c0 -7 6 -22 14 -33 20 -27 43 -6 27 25 -13 23 -41 29 -41
8z"/>
<path d="M2151 574 c-81 -68 4 -198 98 -150 60 31 70 99 22 147 -37 37 -79 38
-120 3z"/>
<path d="M3288 556 c-6 -15 -8 -29 -5 -32 12 -12 37 5 37 25 0 31 -19 35 -32
7z"/>
<path d="M2455 560 c-8 -13 13 -40 31 -40 17 0 18 22 2 38 -15 15 -25 15 -33
2z"/>
<path d="M2990 551 c-7 -14 -7 -22 1 -26 12 -8 51 24 43 36 -9 15 -33 10 -44
-10z"/>
<path d="M2729 511 c-48 -48 -38 -116 22 -147 52 -27 115 3 134 64 3 12 13 22
21 22 8 0 14 7 14 15 0 18 -30 20 -30 3 -1 -7 -7 1 -14 17 -26 59 -101 72
-147 26z"/>
<path d="M2510 507 c0 -17 20 -37 37 -37 20 0 15 28 -6 40 -26 13 -31 13 -31
-3z"/>
<path d="M2942 508 c-12 -12 -17 -38 -6 -38 16 0 44 23 44 35 0 18 -21 20 -38
3z"/>
<path d="M3256 488 c-19 -27 -5 -48 19 -28 16 14 21 50 6 50 -6 0 -17 -10 -25
-22z"/>
<path d="M2570 465 c0 -19 41 -37 55 -23 7 6 3 14 -9 24 -26 18 -46 18 -46 -1z"/>
<path d="M2642 438 c2 -6 14 -15 26 -19 18 -7 22 -5 22 11 0 15 -7 20 -26 20
-15 0 -24 -5 -22 -12z"/>
<path d="M3217 432 c-9 -10 -17 -22 -17 -26 0 -4 -10 -16 -22 -25 -12 -11 -18
-23 -14 -30 9 -14 36 4 36 24 0 7 9 15 20 18 23 6 37 34 23 48 -6 6 -16 3 -26
-9z"/>
<path d="M2260 420 c-13 -8 -12 -10 3 -10 9 0 17 5 17 10 0 12 -1 12 -20 0z"/>
<path d="M2282 384 c4 -20 34 -41 45 -31 10 11 -11 41 -31 45 -12 3 -17 -2
-14 -14z"/>
<path d="M3028 375 c-32 -18 -52 -72 -39 -106 19 -51 75 -78 121 -59 64 27 80
102 31 151 -33 32 -70 37 -113 14z"/>
<path d="M2337 343 c-12 -11 -8 -22 13 -33 30 -16 45 -2 24 21 -18 20 -27 23
-37 12z"/>
<path d="M2395 300 c-9 -15 13 -40 37 -40 24 0 19 18 -9 37 -15 10 -23 11 -28
3z"/>
<path d="M2500 281 c-16 -16 -31 -27 -33 -25 -2 2 -1 -17 3 -43 14 -87 89
-120 151 -65 25 22 31 36 31 67 0 31 -6 45 -31 67 -42 37 -83 37 -121 -1z"/>
<path d="M2964 239 c-10 -17 13 -36 27 -22 12 12 4 33 -11 33 -5 0 -12 -5 -16
-11z"/>
<path d="M2908 223 c-20 -5 -23 -18 -8 -28 16 -10 50 5 50 21 0 14 -10 16 -42
7z"/>
<path d="M2824 199 c-3 -6 -2 -15 3 -20 12 -12 53 1 53 17 0 17 -46 19 -56 3z"/>
<path d="M2670 185 c0 -10 10 -15 30 -15 20 0 30 5 30 15 0 10 -10 15 -30 15
-20 0 -30 -5 -30 -15z"/>
<path d="M2745 191 c-7 -13 17 -24 40 -19 9 1 16 8 16 13 0 14 -48 19 -56 6z"/>
</g>
</svg>
